<?xml version="1.0" standalone="no"?>
<!DOCTYPE svg PUBLIC "-//W3C//DTD SVG 20010904//EN"
 "http://www.w3.org/TR/2001/REC-SVG-20010904/DTD/svg10.dtd">
<svg version="1.0" xmlns="http://www.w3.org/2000/svg"
 width="396.000000pt" height="168.000000pt" viewBox="0 0 396.000000 168.000000"
 preserveAspectRatio="xMidYMid meet">

<g transform="translate(0.000000,168.000000) scale(0.100000,-0.100000)"
fill="#000000" stroke="none">
<path d="M670 1085 l-245 -245 248 -248 247 -247 247 247 248 248 -245 245
c-135 135 -247 245 -250 245 -3 0 -115 -110 -250 -245z m335 -165 l80 -80 -83
-83 -82 -82 -82 82 -83 83 80 80 c44 44 82 80 85 80 3 0 41 -36 85 -80z"/>
<path d="M1630 1066 c0 -188 1 -196 20 -196 17 0 19 8 22 83 l3 82 78 3 c71 3
79 1 102 -22 21 -21 25 -34 25 -86 l0 -60 30 0 c27 0 30 2 20 19 -5 11 -10 45
-10 75 0 42 -5 61 -19 75 -19 19 -19 20 -1 41 40 46 34 119 -14 154 -23 18
-45 21 -142 25 l-114 3 0 -196z m230 134 c26 -26 26 -81 0 -105 -25 -23 -152
-34 -175 -15 -15 13 -22 120 -8 133 3 4 42 7 85 7 65 0 81 -3 98 -20z"/>
<path d="M2020 1108 c0 -165 5 -187 53 -222 40 -30 144 -30 184 0 55 40 64 74
61 229 -3 132 -4 140 -23 140 -19 0 -20 -8 -25 -153 -5 -153 -5 -154 -33 -178
-45 -39 -132 -29 -159 18 -8 15 -15 75 -18 168 -4 128 -7 145 -22 148 -17 3
-18 -9 -18 -150z"/>
<path d="M2418 1254 c-5 -4 -8 -92 -8 -197 l0 -189 109 4 c91 2 114 6 138 24
100 72 96 279 -6 338 -24 14 -59 20 -130 24 -53 2 -99 1 -103 -4z m202 -49
c42 -22 61 -65 61 -140 0 -117 -37 -155 -148 -155 l-73 0 0 148 c0 82 3 152 7
155 12 13 124 7 153 -8z"/>
<path d="M2820 1065 c0 -187 1 -195 20 -195 17 0 19 8 22 83 l3 82 76 3 c103
4 122 -11 129 -100 5 -59 7 -63 31 -66 l25 -3 -12 83 c-7 51 -17 86 -26 92
-13 8 -12 14 8 44 45 66 20 141 -54 162 -20 5 -79 10 -129 10 l-93 0 0 -195z
m230 135 c26 -26 26 -81 0 -105 -25 -23 -152 -34 -175 -15 -15 13 -22 120 -8
133 3 4 42 7 85 7 65 0 81 -3 98 -20z"/>
<path d="M3302 1208 c-11 -29 -43 -113 -71 -187 -28 -74 -51 -138 -51 -143 0
-4 8 -8 19 -8 13 0 25 16 41 55 l22 55 84 0 83 0 17 -55 c15 -46 22 -55 41
-55 13 0 23 2 23 4 0 2 -18 55 -41 117 -22 63 -53 148 -67 189 -24 66 -30 75
-54 78 -23 3 -28 -2 -46 -50z m78 -99 c12 -38 18 -74 15 -79 -8 -12 -102 -13
-109 -1 -5 8 35 128 50 153 11 17 24 -5 44 -73z"/>
<path d="M3343 739 c-36 -10 -63 -51 -63 -93 0 -33 39 -62 103 -76 66 -14 97
-34 97 -64 0 -36 -30 -56 -84 -56 -36 0 -52 5 -71 25 -14 13 -25 29 -25 35 0
5 -7 10 -15 10 -23 0 -18 -35 8 -66 19 -22 34 -28 80 -32 73 -6 115 11 133 54
10 24 11 40 3 62 -12 34 -32 46 -114 66 -53 14 -85 35 -85 57 0 4 9 17 19 30
34 43 141 22 141 -28 0 -7 9 -13 21 -13 16 0 19 4 13 23 -10 34 -34 56 -73 67
-42 11 -45 11 -88 -1z"/>
<path d="M1620 580 c0 -153 1 -160 20 -160 18 0 20 7 20 70 l0 70 68 0 c37 0
74 -5 82 -10 9 -5 17 -31 20 -67 4 -49 8 -58 26 -61 21 -3 21 -2 9 69 -7 39
-18 75 -25 79 -9 6 -7 13 9 29 38 38 20 112 -32 131 -16 5 -68 10 -113 10
l-84 0 0 -160z m194 114 c9 -8 16 -29 16 -44 0 -43 -34 -62 -107 -58 l-58 3
-3 44 c-2 24 -1 50 2 57 8 21 129 19 150 -2z"/>
<path d="M1950 580 l0 -160 110 0 c103 0 110 1 110 20 0 19 -7 20 -96 20 l-95
0 3 53 3 52 88 3 c67 2 87 6 87 17 0 11 -20 15 -87 17 l-88 3 0 50 0 50 93 3
c73 2 92 6 92 17 0 12 -20 15 -110 15 l-110 0 0 -160z"/>
<path d="M2240 580 c0 -152 1 -160 20 -160 17 0 19 8 22 68 l3 67 73 5 c62 4
77 9 93 29 19 23 25 74 13 106 -12 30 -60 45 -144 45 l-80 0 0 -160z m180 110
c11 -11 20 -29 20 -40 0 -39 -35 -60 -100 -60 l-60 0 0 53 c0 30 3 57 7 60 3
4 30 7 60 7 40 0 58 -5 73 -20z"/>
<path d="M2619 713 c-6 -15 -30 -80 -54 -143 -24 -63 -46 -123 -50 -132 -5
-13 -2 -18 12 -18 13 0 23 14 36 50 l18 51 67 -3 67 -3 16 -45 c11 -30 23 -46
37 -48 18 -3 15 11 -38 155 -48 131 -61 159 -79 161 -15 3 -24 -4 -32 -25z
m60 -95 c11 -31 17 -59 14 -62 -12 -11 -93 -6 -93 5 0 26 44 129 51 122 5 -5
17 -34 28 -65z"/>
<path d="M2840 580 c0 -153 1 -160 20 -160 19 0 20 7 20 160 0 153 -1 160 -20
160 -19 0 -20 -7 -20 -160z"/>
<path d="M2960 580 c0 -153 1 -160 20 -160 18 0 20 7 20 70 l0 70 68 0 c37 0
74 -5 82 -10 9 -5 17 -31 20 -67 4 -49 8 -58 26 -61 21 -3 21 -2 9 69 -7 39
-18 75 -25 79 -9 6 -7 13 9 29 38 38 20 112 -32 131 -16 5 -68 10 -113 10
l-84 0 0 -160z m194 114 c9 -8 16 -29 16 -44 0 -43 -34 -62 -107 -58 l-58 3
-3 44 c-2 24 -1 50 2 57 8 21 129 19 150 -2z"/>
</g>
</svg>
